<svg version="1.1" id="Layer_1" xmlns="http://www.w3.org/2000/svg" xmlns:xlink="http://www.w3.org/1999/xlink" x="0px" y="0px"
	 width="100%" viewBox="0 0 1131 1131" enable-background="new 0 0 1131 1131" xml:space="preserve">
<path fill="#000000" opacity="1.000000" stroke="none" 
	d="
M1.000002,719.000000 
	C1.000000,479.688538 1.000000,240.377106 1.000000,1.032825 
	C377.943634,1.032825 754.887268,1.032825 1131.915527,1.032825 
	C1131.915527,377.909149 1131.915527,754.818359 1131.915527,1131.863770 
	C755.000000,1131.863770 378.000031,1131.863770 1.000008,1131.869873 
	C1.000000,1000.221252 1.000000,868.566589 1.354981,736.403320 
	C2.156833,736.354492 2.760181,736.737976 3.026781,737.285400 
	C6.267015,743.939514 11.551907,747.734314 18.574516,750.139160 
	C35.313984,755.871460 51.830788,762.250549 68.477455,768.257751 
	C113.755798,784.597290 158.885330,801.372131 204.397812,817.032959 
	C242.717163,830.218750 281.314606,842.670166 320.119598,854.347656 
	C351.588776,863.817627 383.446014,872.063843 415.317657,880.114319 
	C456.350586,890.478760 497.874298,898.374695 540.108398,902.045105 
	C555.926636,903.419861 571.736328,905.396057 587.583252,905.805847 
	C606.017700,906.282532 624.507263,905.744019 642.938477,904.896057 
	C659.453003,904.136230 675.971680,902.800476 692.394470,900.904236 
	C708.457458,899.049561 724.540894,896.843384 740.367859,893.587952 
	C770.488342,887.392456 800.308716,879.792603 829.144836,868.976990 
	C852.986755,860.034668 876.894836,851.109741 900.105469,840.688965 
	C922.460327,830.652405 944.384827,819.462769 965.725464,807.411011 
	C992.362854,792.368042 1018.228333,775.955811 1044.384033,760.063782 
	C1050.699585,756.226440 1056.845703,752.110046 1064.106567,747.457703 
	C1057.571655,782.130554 1051.247070,815.686829 1044.881104,849.463440 
	C1059.327637,852.200989 1073.123047,854.688049 1086.850464,857.506409 
	C1090.249634,858.204346 1090.521973,856.214844 1090.931396,854.116455 
	C1091.816772,849.579224 1092.467041,844.996460 1093.332886,840.455139 
	C1097.537842,818.400330 1101.787476,796.354065 1106.011597,774.302856 
	C1110.918701,748.685547 1115.839111,723.070740 1120.699707,697.444519 
	C1121.883179,691.204468 1122.855103,684.924255 1123.960571,678.449646 
	C1063.813354,667.085632 1004.251953,655.832275 944.597961,644.561462 
	C941.634399,660.176819 938.899597,674.586548 936.011414,689.804626 
	C969.540649,696.178772 1002.920654,702.524597 1037.282837,709.057129 
	C1035.851562,710.242554 1035.413208,710.685791 1034.902222,711.016846 
	C1025.045654,717.403748 1015.397705,724.147400 1005.276855,730.084595 
	C974.876526,747.918518 944.637024,766.076355 913.649902,782.841736 
	C894.610901,793.142822 874.492798,801.535767 854.546082,810.051880 
	C825.762329,822.340881 796.114014,832.231995 765.824036,840.187866 
	C737.496887,847.628235 708.866516,853.404663 679.671875,856.031860 
	C662.701477,857.559082 645.706177,859.567566 628.702515,859.777893 
	C607.469299,860.040588 586.189941,859.120300 564.979553,857.874756 
	C547.831970,856.867737 530.614990,855.492310 513.682556,852.726685 
	C487.135986,848.390869 460.627991,843.509155 434.417145,837.492981 
	C382.515411,825.580017 331.369324,810.778687 280.842590,793.979187 
	C239.390228,780.196716 198.147659,765.777039 156.898712,751.391479 
	C135.816559,744.039062 114.921844,736.148743 93.947319,728.488159 
	C73.438835,720.997864 53.000381,713.309387 32.407738,706.058411 
	C20.051378,701.707581 10.163892,705.764893 3.410733,717.033142 
	C2.909260,717.869812 1.817401,718.352661 1.000002,719.000000 
M616.285706,780.680176 
	C618.650391,781.313904 621.015076,781.947693 624.299683,782.828064 
	C624.547607,793.052673 625.260376,803.639954 624.912598,814.192261 
	C624.645142,822.309387 627.186890,829.379456 630.251892,836.555298 
	C632.166321,841.037231 635.750916,842.898865 639.765930,845.218628 
	C648.701355,850.381287 658.143494,848.709656 667.471252,848.840759 
	C671.946838,848.903687 674.839966,845.748657 674.859497,841.159424 
	C674.875671,837.376953 673.985840,833.587708 674.035950,829.808655 
	C674.154846,820.846680 668.616516,819.483398 661.946960,820.102173 
	C656.494812,820.607971 654.990051,819.299805 654.954224,813.721130 
	C654.908142,806.558716 655.039185,799.393860 654.897461,792.233948 
	C654.827271,788.686646 654.317505,785.147949 653.947327,780.930603 
	C658.056641,780.930603 661.517639,781.036865 664.969604,780.905945 
	C670.286377,780.704407 672.843445,778.232849 672.865906,772.864319 
	C672.881042,769.249634 672.319153,765.627502 671.934204,762.017395 
	C671.286804,755.946045 668.192993,753.671448 662.281006,754.839966 
	C654.544434,756.368958 652.966248,755.102112 652.942322,747.338989 
	C652.936157,745.340088 652.993835,743.339172 652.922852,741.342712 
	C652.742554,736.268311 650.669312,734.051941 645.528503,734.121765 
	C640.244751,734.193604 634.966492,734.710205 629.687134,735.052490 
	C624.961060,735.358826 623.003174,738.080383 623.054260,742.620911 
	C623.102783,746.927368 623.064636,751.234741 623.064636,755.664368 
	C612.409119,757.663879 612.585938,765.624939 612.939209,773.642639 
	C609.336792,763.978638 604.081360,756.517151 594.807007,751.889160 
	C584.334351,746.663269 573.556824,743.937561 562.000305,746.178711 
	C552.138672,748.091187 542.576538,751.456848 536.304871,759.804321 
	C530.873169,767.033813 526.165222,774.885925 525.401062,784.373230 
	C524.621887,794.047546 523.377747,803.507446 527.044678,813.158386 
	C535.120422,834.412842 549.731018,840.481262 568.005554,842.845703 
	C570.539246,843.173523 573.225220,842.058960 575.851807,841.979065 
	C590.862366,841.522400 605.227844,831.188171 610.401489,816.995605 
	C611.895874,812.896118 610.010681,808.958557 605.769165,808.224854 
	C600.248108,807.269714 594.647827,806.776062 589.084778,806.059509 
	C584.591614,805.480713 581.177185,807.115845 578.049988,810.420471 
	C571.853577,816.968079 563.878418,816.312012 558.515808,808.943481 
	C555.231628,804.430908 554.600708,799.345276 554.747192,793.681824 
	C554.967651,785.159485 558.812622,779.302795 565.456665,774.776001 
	C569.533325,771.998352 574.617615,772.275757 578.125061,775.649170 
	C580.003357,777.455688 581.852844,779.556641 582.914307,781.889221 
	C584.738586,785.898071 587.829407,787.475281 591.838257,787.929077 
	C596.104309,788.411987 600.423828,788.575684 604.636780,789.338623 
	C611.229065,790.532349 614.477844,788.075928 615.262695,780.720215 
	C615.379639,780.581604 615.496582,780.442932 616.285706,780.680176 
M588.383484,685.373474 
	C589.136475,683.603394 589.889465,681.833374 590.537170,679.152100 
	C593.066528,668.310486 595.486328,657.441711 598.157349,646.635071 
	C600.628052,636.638306 603.570435,626.755981 605.942139,616.737366 
	C609.618347,601.207886 613.019653,585.612793 616.474304,570.031494 
	C619.352356,557.050598 622.860229,544.156128 624.800110,531.032776 
	C627.789551,510.809357 630.214050,490.466217 631.854736,470.091431 
	C633.077209,454.909698 633.106812,439.591980 632.906799,424.344788 
	C632.594543,400.537598 627.201599,377.814728 618.121033,355.722260 
	C611.066528,338.558990 600.458557,323.798157 588.891113,309.831696 
	C577.475342,296.048401 563.752197,284.253448 548.693176,274.477692 
	C533.842041,264.836975 518.602966,255.709793 503.027649,247.294556 
	C489.804626,240.150208 476.010559,233.992203 462.194580,228.034485 
	C446.379028,221.214462 430.290253,215.021530 414.261841,208.704163 
	C405.003235,205.055008 395.700867,201.490341 386.291168,198.257355 
	C371.689667,193.240555 357.004791,188.461655 342.308228,183.727905 
	C329.779449,179.692413 317.191498,175.839645 304.616241,171.949646 
	C295.432404,169.108734 286.241608,166.288315 277.026031,163.552719 
	C269.394348,161.287292 261.717041,159.175964 254.068695,156.966064 
	C243.960419,154.045441 233.881714,151.019638 223.745758,148.199097 
	C220.234070,147.221878 216.589386,146.722534 212.633469,145.414047 
	C210.597519,142.504181 208.129593,142.903549 205.380493,144.319672 
	C202.064728,146.027679 201.851379,148.621445 202.452957,152.128891 
	C202.966232,157.340973 203.507111,162.550522 203.987671,167.765625 
	C205.509079,184.276779 206.886642,200.802307 208.554718,217.298523 
	C209.843628,230.045288 211.492477,242.755554 212.969086,255.483475 
	C214.850311,271.699127 216.326263,287.973663 218.689087,304.118622 
	C221.915878,326.167053 225.571533,348.160614 229.499161,370.096100 
	C232.757599,388.294220 236.054703,406.526428 240.451584,424.469818 
	C246.497360,449.142029 253.879715,473.518646 265.124084,496.385559 
	C272.351105,511.082581 280.339722,525.500366 289.189087,539.270813 
	C295.067291,548.417969 302.497284,556.778992 310.261108,564.451233 
	C320.502899,574.572205 331.062317,584.643311 342.749023,592.959839 
	C356.371521,602.653870 370.820221,611.552734 385.879395,618.776550 
	C408.437134,629.597290 431.696930,639.012695 454.934601,648.336853 
	C469.607422,654.224426 484.710876,659.080750 499.756134,663.985596 
	C513.230591,668.378357 526.897278,672.180054 540.465332,676.288086 
	C551.962280,679.769165 563.327576,683.782898 574.987549,686.573364 
	C578.943359,687.520142 584.073853,691.898010 588.383484,685.373474 
M249.811859,670.118042 
	C250.841110,666.639404 251.848145,663.153992 252.904938,659.683777 
	C254.419312,654.710876 252.606415,651.576782 247.483719,650.099304 
	C241.303101,648.316711 235.150436,646.436462 228.993607,644.572327 
	C217.940674,641.225830 206.921265,637.764771 195.832123,634.543396 
	C190.599731,633.023376 187.513275,634.809814 186.121841,639.391296 
	C176.676468,670.491882 167.242584,701.596130 157.698425,732.666443 
	C155.248505,740.641968 155.859543,742.434326 163.911530,744.974426 
	C180.590118,750.235718 197.323624,755.323730 214.051300,760.428040 
	C218.376221,761.747864 221.898544,760.005127 223.553925,755.605469 
	C224.770660,752.371765 225.526276,748.967590 226.599625,745.676025 
	C228.600266,739.540710 227.436111,737.064819 221.041168,735.004700 
	C211.316132,731.872009 201.537827,728.904602 191.412415,725.751892 
	C192.963272,720.531555 194.516846,715.553284 195.907990,710.530029 
	C196.817154,707.247131 198.349579,706.502625 201.744034,707.676147 
	C209.067108,710.207886 216.576355,712.200134 224.004776,714.428650 
	C228.489883,715.774231 231.440262,714.170288 232.861374,709.776672 
	C233.926849,706.482483 234.848389,703.142029 235.871674,699.833862 
	C237.787308,693.640747 236.030182,690.825256 229.663437,688.989685 
	C221.608826,686.667419 213.643524,684.035278 204.987152,681.333069 
	C206.588470,676.105103 208.053055,671.323486 209.643600,666.130676 
	C219.743118,669.195801 229.386047,671.926575 238.886780,675.085083 
	C243.927689,676.760986 247.238220,675.421021 249.811859,670.118042 
M909.940918,743.516846 
	C906.923584,734.766418 903.937683,726.005005 900.881104,717.268250 
	C896.761658,705.493164 882.311523,696.767822 870.835449,696.087708 
	C861.385986,695.527710 852.701782,699.062256 844.918823,703.478943 
	C839.796143,706.385864 836.124207,710.167603 829.298889,708.486328 
	C826.177856,707.717590 822.197632,710.664978 818.553223,711.744995 
	C811.050659,713.968445 808.407471,718.759705 810.781372,726.320984 
	C811.770386,729.471313 813.022766,732.538025 814.087830,735.665771 
	C821.069702,756.168152 828.023315,776.680298 835.008911,797.181458 
	C836.915344,802.776428 839.117798,803.857666 844.811646,802.068115 
	C849.228577,800.679871 853.668030,799.349731 858.030029,797.803467 
	C863.165466,795.983154 864.796082,792.535950 863.072388,787.254517 
	C858.711426,773.892090 854.091797,760.609985 850.001160,747.166260 
	C848.894714,743.530090 848.740051,739.371033 849.156372,735.562073 
	C849.716125,730.440552 856.702942,725.463501 861.771606,725.792603 
	C868.822571,726.250427 873.621765,730.027466 875.945435,736.877014 
	C880.619019,750.652954 885.304810,764.424805 890.010132,778.189819 
	C891.849854,783.571777 894.719177,784.987183 900.351013,783.229004 
	C904.612183,781.898743 908.839172,780.456299 913.064331,779.013855 
	C918.506165,777.155945 920.051270,774.271240 918.277588,768.764648 
	C915.641357,760.579773 912.831787,752.450745 909.940918,743.516846 
M268.385559,729.068604 
	C271.358063,724.420410 273.847992,719.356323 277.413361,715.218994 
	C283.122894,708.593628 294.504883,711.824036 297.112335,720.350525 
	C298.817902,725.927917 301.295776,730.658447 308.106812,731.605225 
	C311.812225,732.120422 315.406921,733.650879 318.964600,734.959717 
	C324.505432,736.998169 329.462799,733.260681 328.853394,727.354736 
	C328.738861,726.244690 328.499390,725.140259 328.472656,724.029480 
	C328.204681,712.906189 323.672424,703.383362 315.695618,696.170105 
	C308.359131,689.536011 299.638367,685.543091 289.071564,684.638977 
	C273.707184,683.324341 260.525482,686.882141 250.459991,698.384644 
	C240.991608,709.204834 236.609772,722.369629 237.090775,736.907410 
	C237.172195,739.368347 237.802032,741.805908 238.032333,744.268005 
	C239.039871,755.039551 245.111572,763.225159 251.797791,771.043701 
	C252.801056,772.216858 254.625671,772.704468 256.097473,773.456055 
	C258.106110,774.481750 260.221252,775.322083 262.150146,776.476807 
	C269.749664,781.025940 278.193054,781.342773 286.615082,781.099426 
	C294.255127,780.878601 301.132996,777.805176 307.190735,773.301331 
	C311.084229,770.406494 315.086609,767.282776 317.925873,763.438660 
	C321.629395,758.424316 320.475708,755.315674 314.709320,753.059570 
	C308.877625,750.777954 302.899872,748.646973 296.791962,747.404114 
	C294.363068,746.909851 290.931519,748.356079 288.796539,750.005920 
	C283.854889,753.824768 278.044830,753.755310 273.211609,749.923279 
	C266.220856,744.380737 265.686951,737.577209 268.385559,729.068604 
M468.598083,808.934998 
	C472.717010,809.282837 476.894348,809.334351 480.925079,810.129272 
	C482.464294,810.432861 484.300354,812.190918 484.899506,813.718262 
	C486.393219,817.526001 486.787354,821.803284 488.523224,825.465271 
	C489.827850,828.217529 492.160645,831.768250 494.681885,832.405029 
	C501.010620,834.003357 507.694550,834.542236 514.258301,834.730774 
	C518.100037,834.841064 520.087402,831.813660 519.842041,827.929199 
	C519.686890,825.473816 519.248535,823.002747 518.638184,820.615173 
	C514.864868,805.854187 510.933258,791.133301 507.228333,776.355408 
	C506.309479,772.690247 506.346436,768.783325 505.405548,765.126099 
	C502.053925,752.098389 498.289215,739.175293 495.044495,726.122253 
	C493.196960,718.690063 490.842072,716.409546 483.286621,716.028931 
	C478.334564,715.779419 473.284302,715.704285 468.488983,714.619019 
	C463.676086,713.529846 461.256958,715.568054 459.435822,719.346985 
	C457.928833,722.473999 456.621857,725.697266 455.117401,728.825500 
	C446.151978,747.467529 437.150848,766.092468 428.170135,784.727112 
	C423.866394,793.657104 419.595795,802.603088 415.282806,811.528625 
	C411.869263,818.592651 413.980927,823.476807 421.573303,825.131226 
	C425.901581,826.074341 430.364105,826.454590 434.784882,826.905396 
	C439.322205,827.368225 442.440430,825.132874 444.297577,821.145630 
	C445.971252,817.552307 447.109436,813.661255 449.152985,810.309570 
	C450.122803,808.719055 452.668854,807.158997 454.471954,807.191467 
	C458.885620,807.270691 463.282471,808.284424 468.598083,808.934998 
M682.892334,769.671143 
	C687.832397,784.215088 692.777588,798.757202 697.710449,813.303589 
	C700.839478,822.530640 703.718445,831.851379 707.153870,840.962585 
	C709.302734,846.661987 711.941956,847.518860 717.597290,845.631958 
	C720.417664,844.690918 723.243530,843.766479 726.064880,842.828430 
	C734.078430,840.163940 735.401245,837.582520 732.679382,829.556580 
	C724.828186,806.405701 716.864380,783.292725 709.122559,760.105469 
	C707.441589,755.070740 705.237427,751.274658 699.028687,751.988708 
	C706.471619,738.778015 707.634705,729.898254 696.858582,723.497986 
	C690.150696,719.513916 676.262634,722.142029 672.546265,727.848389 
	C669.295959,732.838989 668.828125,737.950928 670.353210,743.363770 
	C672.444397,750.786133 678.616577,753.897217 685.307373,756.362244 
	C680.429260,761.184448 680.296753,761.834290 682.892334,769.671143 
M810.070251,747.385742 
	C808.642578,745.377747 807.644836,742.675171 805.713989,741.479919 
	C796.517700,735.787231 787.762146,728.759827 776.062927,729.083313 
	C771.878479,729.198975 767.692322,730.087219 763.528564,729.952820 
	C754.277771,729.654297 747.801147,735.584839 740.863281,740.048096 
	C737.376099,742.291443 735.012634,746.506958 732.616089,750.143677 
	C730.911438,752.730347 730.181641,755.937256 728.700073,758.697388 
	C724.766174,766.026428 723.188232,774.347351 724.597595,781.939514 
	C726.622375,792.846130 730.551758,803.528748 738.578308,812.065186 
	C752.011963,826.352112 768.776733,828.068115 786.390259,823.898132 
	C792.805847,822.379272 798.672485,817.806274 804.281250,813.897278 
	C807.523193,811.637878 809.998596,808.100403 812.350403,804.803772 
	C813.951111,802.559937 814.625549,799.677979 815.912292,797.183594 
	C820.843506,787.624146 821.486389,777.408875 818.885742,767.367188 
	C817.143433,760.639954 813.330750,754.448853 810.070251,747.385742 
M394.480499,717.056152 
	C389.465576,714.429932 384.708740,711.942200 378.502350,711.979980 
	C374.149445,712.006409 369.729218,709.635498 365.042816,711.039246 
	C362.378479,711.837402 359.566803,712.188416 356.959930,713.125732 
	C348.166565,716.287415 339.339355,720.083618 334.466675,728.373657 
	C329.642181,736.581665 323.300018,744.458374 324.261353,755.148804 
	C324.674194,759.739380 322.676880,764.774475 323.873016,769.015869 
	C325.909271,776.236572 328.979523,783.351013 332.745178,789.856018 
	C338.705750,800.152649 349.203613,804.607300 360.151764,806.692078 
	C368.941895,808.365967 377.940277,808.377502 387.007080,805.245239 
	C394.711273,802.583801 401.731262,798.787415 406.174530,792.713745 
	C415.466248,780.012268 420.861786,765.578125 417.919586,749.320618 
	C415.355591,735.152954 408.978394,723.532043 394.480499,717.056152 
z"/>
<path fill="#177245" opacity="1.000000" stroke="none" 
	d="
M1.000002,719.467590 
	C1.817401,718.352661 2.909260,717.869812 3.410733,717.033142 
	C10.163892,705.764893 20.051378,701.707581 32.407738,706.058411 
	C53.000381,713.309387 73.438835,720.997864 93.947319,728.488159 
	C114.921844,736.148743 135.816559,744.039062 156.898712,751.391479 
	C198.147659,765.777039 239.390228,780.196716 280.842590,793.979187 
	C331.369324,810.778687 382.515411,825.580017 434.417145,837.492981 
	C460.627991,843.509155 487.135986,848.390869 513.682556,852.726685 
	C530.614990,855.492310 547.831970,856.867737 564.979553,857.874756 
	C586.189941,859.120300 607.469299,860.040588 628.702515,859.777893 
	C645.706177,859.567566 662.701477,857.559082 679.671875,856.031860 
	C708.866516,853.404663 737.496887,847.628235 765.824036,840.187866 
	C796.114014,832.231995 825.762329,822.340881 854.546082,810.051880 
	C874.492798,801.535767 894.610901,793.142822 913.649902,782.841736 
	C944.637024,766.076355 974.876526,747.918518 1005.276855,730.084595 
	C1015.397705,724.147400 1025.045654,717.403748 1034.902222,711.016846 
	C1035.413208,710.685791 1035.851562,710.242554 1037.282837,709.057129 
	C1002.920654,702.524597 969.540649,696.178772 936.011414,689.804626 
	C938.899597,674.586548 941.634399,660.176819 944.597961,644.561462 
	C1004.251953,655.832275 1063.813354,667.085632 1123.960571,678.449646 
	C1122.855103,684.924255 1121.883179,691.204468 1120.699707,697.444519 
	C1115.839111,723.070740 1110.918701,748.685547 1106.011597,774.302856 
	C1101.787476,796.354065 1097.537842,818.400330 1093.332886,840.455139 
	C1092.467041,844.996460 1091.816772,849.579224 1090.931396,854.116455 
	C1090.521973,856.214844 1090.249634,858.204346 1086.850464,857.506409 
	C1073.123047,854.688049 1059.327637,852.200989 1044.881104,849.463440 
	C1051.247070,815.686829 1057.571655,782.130554 1064.106567,747.457703 
	C1056.845703,752.110046 1050.699585,756.226440 1044.384033,760.063782 
	C1018.228333,775.955811 992.362854,792.368042 965.725464,807.411011 
	C944.384827,819.462769 922.460327,830.652405 900.105469,840.688965 
	C876.894836,851.109741 852.986755,860.034668 829.144836,868.976990 
	C800.308716,879.792603 770.488342,887.392456 740.367859,893.587952 
	C724.540894,896.843384 708.457458,899.049561 692.394470,900.904236 
	C675.971680,902.800476 659.453003,904.136230 642.938477,904.896057 
	C624.507263,905.744019 606.017700,906.282532 587.583252,905.805847 
	C571.736328,905.396057 555.926636,903.419861 540.108398,902.045105 
	C497.874298,898.374695 456.350586,890.478760 415.317657,880.114319 
	C383.446014,872.063843 351.588776,863.817627 320.119598,854.347656 
	C281.314606,842.670166 242.717163,830.218750 204.397812,817.032959 
	C158.885330,801.372131 113.755798,784.597290 68.477455,768.257751 
	C51.830788,762.250549 35.313984,755.871460 18.574516,750.139160 
	C11.551907,747.734314 6.267015,743.939514 3.026781,737.285400 
	C2.760181,736.737976 2.156833,736.354492 1.354981,735.947388 
	C1.000000,730.645081 1.000000,725.290100 1.000002,719.467590 
z"/>
<path fill="#177145" opacity="1.000000" stroke="none" 
	d="
M213.005447,146.004913 
	C216.589386,146.722534 220.234070,147.221878 223.745758,148.199097 
	C233.881714,151.019638 243.960419,154.045441 254.068695,156.966064 
	C261.717041,159.175964 269.394348,161.287292 277.026031,163.552719 
	C286.241608,166.288315 295.432404,169.108734 304.616241,171.949646 
	C317.191498,175.839645 329.779449,179.692413 342.308228,183.727905 
	C357.004791,188.461655 371.689667,193.240555 386.291168,198.257355 
	C395.700867,201.490341 405.003235,205.055008 414.261841,208.704163 
	C430.290253,215.021530 446.379028,221.214462 462.194580,228.034485 
	C476.010559,233.992203 489.804626,240.150208 503.027649,247.294556 
	C518.602966,255.709793 533.842041,264.836975 548.693176,274.477692 
	C563.752197,284.253448 577.475342,296.048401 588.891113,309.831696 
	C600.458557,323.798157 611.066528,338.558990 618.121033,355.722260 
	C627.201599,377.814728 632.594543,400.537598 632.906799,424.344788 
	C633.106812,439.591980 633.077209,454.909698 631.854736,470.091431 
	C630.214050,490.466217 627.789551,510.809357 624.800110,531.032776 
	C622.860229,544.156128 619.352356,557.050598 616.474304,570.031494 
	C613.019653,585.612793 609.618347,601.207886 605.942139,616.737366 
	C603.570435,626.755981 600.628052,636.638306 598.157349,646.635071 
	C595.486328,657.441711 593.066528,668.310486 590.268127,679.317139 
	C588.551636,677.672424 586.892517,675.992859 585.688660,674.033447 
	C568.245667,645.644531 550.861023,617.219666 533.469543,588.799072 
	C530.282715,583.591248 527.127258,578.364136 524.061462,573.317261 
	C524.662415,572.600647 524.822205,572.262939 525.086670,572.123108 
	C525.818970,571.735840 526.567200,571.334961 527.357483,571.107727 
	C556.032837,562.863098 571.239929,542.530212 578.138489,514.676697 
	C578.935486,511.458649 578.394775,508.441376 575.109863,507.962982 
	C573.210999,507.686432 570.842468,509.830414 568.889526,511.180389 
	C568.236023,511.632141 568.236816,513.006592 567.901489,513.946045 
	C565.886414,519.591553 564.151245,525.358337 561.785095,530.853149 
	C553.970459,549.001099 538.569458,557.637939 520.608398,562.650452 
	C519.223450,563.036926 516.416382,561.086670 515.374207,559.498291 
	C508.156128,548.496826 501.370331,537.211426 494.135406,526.221497 
	C491.611267,522.387268 492.119568,520.458496 496.017212,518.028992 
	C517.985229,504.335815 533.998230,485.634338 541.724243,460.681610 
	C545.950867,447.031036 549.060303,433.036133 552.758789,419.219299 
	C553.743713,415.539612 553.575989,412.204132 549.341614,411.283020 
	C545.322937,410.408813 543.873169,413.531097 543.093506,416.865051 
	C541.235352,424.811310 539.371033,432.756226 537.536804,440.708069 
	C530.826416,469.799805 516.852112,493.876373 490.670044,509.869904 
	C486.577148,512.370117 484.890289,511.759918 482.526672,508.030731 
	C473.519897,493.820221 464.257996,479.771179 455.064972,465.679047 
	C448.238373,455.214386 448.010864,455.030426 456.696991,445.747772 
	C485.866516,414.574982 497.668396,375.413666 507.599152,335.417938 
	C508.010651,333.760651 506.192932,330.503784 504.541779,329.618591 
	C501.874084,328.188354 499.458527,329.918427 498.340454,332.856720 
	C498.044800,333.633728 497.802551,334.434082 497.583649,335.236786 
	C495.480713,342.948242 493.522491,350.702026 491.267731,358.368652 
	C483.706146,384.079712 474.276550,408.926636 456.984436,429.972748 
	C452.485779,435.448120 447.722473,440.706024 442.425873,446.819702 
	C441.648407,445.447754 441.359802,444.834839 440.980621,444.284302 
	C429.078003,427.002319 417.192017,409.708740 405.228363,392.469086 
	C403.485809,389.958130 404.263062,388.361633 406.245819,386.490265 
	C409.392029,383.520752 412.411865,380.394867 415.268616,377.144775 
	C434.904053,354.805511 447.590332,329.232422 451.257050,299.476166 
	C451.697083,295.905365 451.084351,292.889404 447.046722,292.334778 
	C443.196320,291.805878 441.930023,294.689697 441.279968,297.860504 
	C441.112976,298.674805 441.045013,299.509735 440.938110,300.335999 
	C436.991516,330.843536 422.557404,355.937958 401.264191,377.554413 
	C398.427368,380.434326 396.641083,380.509796 394.333069,377.019440 
	C390.568481,371.326294 386.500427,365.829742 382.459198,360.324554 
	C376.359344,352.015045 376.741974,354.103210 382.064850,346.321198 
	C400.433441,319.466431 409.947845,290.444427 404.857117,257.603333 
	C404.299072,254.003128 403.851746,250.081131 398.994629,250.612747 
	C394.515991,251.102936 394.718597,254.692871 394.859283,258.271790 
	C395.251251,268.243958 396.142334,278.285156 395.409058,288.193481 
	C394.109009,305.759766 385.962250,320.980164 376.932220,335.701996 
	C375.233826,338.470886 373.323669,341.109863 371.349548,344.049561 
	C370.342499,343.155090 369.782166,342.799042 369.406464,342.303101 
	C357.637512,326.766266 345.809143,311.272705 334.271973,295.565277 
	C333.292786,294.232147 333.638123,291.156921 334.461426,289.404724 
	C337.711090,282.488434 341.608765,275.877167 344.874603,268.967743 
	C350.682465,256.680084 349.004028,244.259766 344.619995,232.018814 
	C344.062042,230.460907 342.026794,228.763840 340.422241,228.456650 
	C339.096039,228.202774 336.693848,229.551468 336.040344,230.836746 
	C335.255920,232.379608 335.615112,234.632050 335.837677,236.535294 
	C336.567169,242.772034 338.488220,249.061447 338.060577,255.198883 
	C337.320007,265.826874 332.023468,274.886871 325.776154,283.710388 
	C324.491211,282.715332 323.722107,282.323059 323.229797,281.708862 
	C308.851654,263.771179 294.454956,245.847672 280.256989,227.768127 
	C279.372314,226.641617 279.314514,223.678406 280.168579,222.558594 
	C288.202362,212.025238 287.295044,200.470856 284.593872,188.620865 
	C283.875641,185.470154 282.198669,183.320816 278.700714,183.936829 
	C275.221283,184.549545 274.341034,187.035034 274.819031,190.311005 
	C275.468140,194.759232 276.066406,199.219193 276.513580,203.691406 
	C277.008698,208.643433 274.836548,212.585754 271.458344,216.750824 
	C269.947327,215.165100 268.767303,214.063217 267.743439,212.831512 
	C255.285370,197.844467 242.806961,182.873947 230.428040,167.821640 
	C224.517242,160.634323 218.806702,153.282318 213.005447,146.004913 
z"/>
<path fill="#177145" opacity="1.000000" stroke="none" 
	d="
M588.049072,685.910217 
	C584.073853,691.898010 578.943359,687.520142 574.987549,686.573364 
	C563.327576,683.782898 551.962280,679.769165 540.465332,676.288086 
	C526.897278,672.180054 513.230591,668.378357 499.756134,663.985596 
	C484.710876,659.080750 469.607422,654.224426 454.934601,648.336853 
	C431.696930,639.012695 408.437134,629.597290 385.879395,618.776550 
	C370.820221,611.552734 356.371521,602.653870 342.749023,592.959839 
	C331.062317,584.643311 320.502899,574.572205 310.261108,564.451233 
	C302.497284,556.778992 295.067291,548.417969 289.189087,539.270813 
	C280.339722,525.500366 272.351105,511.082581 265.124084,496.385559 
	C253.879715,473.518646 246.497360,449.142029 240.451584,424.469818 
	C236.054703,406.526428 232.757599,388.294220 229.499161,370.096100 
	C225.571533,348.160614 221.915878,326.167053 218.689087,304.118622 
	C216.326263,287.973663 214.850311,271.699127 212.969086,255.483475 
	C211.492477,242.755554 209.843628,230.045288 208.554718,217.298523 
	C206.886642,200.802307 205.509079,184.276779 203.987671,167.765625 
	C203.507111,162.550522 202.966232,157.340973 203.033844,152.046570 
	C204.920486,153.235596 206.355774,154.399536 207.512894,155.794220 
	C229.950470,182.838440 252.370834,209.897003 274.754486,236.985855 
	C279.277710,242.459930 283.636658,248.069748 288.458557,254.101364 
	C280.021759,258.916382 271.901062,262.583069 262.893646,261.869904 
	C253.320251,261.111938 243.830246,259.193634 234.337296,257.584503 
	C230.989532,257.017029 228.138306,257.152222 227.194717,260.916962 
	C226.253830,264.671051 228.689697,266.457977 231.913712,267.298584 
	C251.789795,272.481079 271.571808,275.352203 290.611481,264.309082 
	C294.055237,262.311676 296.153656,263.339294 298.489746,266.394989 
	C307.593292,278.302887 317.012024,289.969238 326.240082,301.782776 
	C331.431427,308.428558 336.479156,315.186523 342.171448,322.654694 
	C332.439484,325.216797 323.589478,327.215424 314.405029,325.237671 
	C303.175049,322.819336 292.000427,320.140045 280.822388,317.487152 
	C277.454651,316.687897 274.591644,317.182129 273.570435,320.747192 
	C272.486511,324.531128 275.129852,326.246552 278.314514,327.040070 
	C287.364532,329.295074 296.457794,331.376984 305.504791,333.643738 
	C315.012909,336.026031 324.913605,337.723907 334.117279,334.425629 
	C345.705994,330.272644 352.575806,333.808929 358.359406,343.880463 
	C362.617828,351.296082 368.304962,357.891235 373.505798,365.059204 
	C372.111237,366.025574 371.394470,366.742920 370.529205,367.088989 
	C355.760956,372.995453 340.400421,375.325745 324.542389,374.626343 
	C312.182800,374.081177 300.680054,370.279083 289.462860,365.413300 
	C286.163269,363.982025 283.042694,363.776794 281.468262,367.545105 
	C279.836456,371.450775 282.544891,373.422607 285.760773,374.622589 
	C291.839569,376.890839 297.865509,379.390625 304.095886,381.146698 
	C327.969330,387.875702 351.309967,384.977386 374.108856,376.291016 
	C378.674500,374.551514 381.243988,375.152130 384.002716,379.270111 
	C391.602814,390.614838 399.652466,401.657898 407.483124,412.849121 
	C409.358582,415.529449 411.073822,418.321899 413.507721,422.050934 
	C406.958466,423.299652 401.306824,424.348267 395.667114,425.457642 
	C371.994293,430.114258 348.146881,432.389557 324.160614,428.806488 
	C309.188568,426.569885 294.377411,423.247192 279.506866,420.346344 
	C275.951050,419.652710 272.519379,419.349884 271.664154,423.896423 
	C270.869324,428.121887 274.078033,429.245117 277.349182,429.965881 
	C285.482056,431.757904 293.546906,434.089691 301.774933,435.169678 
	C317.752838,437.266907 333.790039,439.467346 349.864655,440.137054 
	C371.810394,441.051331 393.260315,436.243652 414.637512,431.840057 
	C418.509369,431.042450 420.695587,431.790924 422.881042,435.141541 
	C432.983521,450.630096 443.359680,465.940002 453.593475,481.343292 
	C454.528442,482.750488 455.149200,484.366425 455.969055,485.990875 
	C454.821045,486.449524 454.382446,486.726532 453.912567,486.797943 
	C414.043823,492.858063 374.087494,494.790222 333.955353,489.495178 
	C320.912720,487.774353 307.840546,486.271027 294.770111,484.770569 
	C290.340240,484.262024 287.559387,486.384583 287.970154,489.813934 
	C288.454956,493.861816 291.564331,494.494446 294.895966,494.871002 
	C310.948425,496.685211 326.954254,499.134796 343.053436,500.253906 
	C361.290741,501.521606 379.650604,502.655914 397.882233,501.940155 
	C418.136261,501.145020 438.313873,498.273132 458.503937,496.110657 
	C461.833405,495.754059 463.784729,496.750671 465.465393,499.496735 
	C468.942841,505.178680 472.672455,510.705719 476.252686,516.325562 
	C480.883087,523.593994 485.468933,530.890808 490.294342,538.524048 
	C488.686829,539.240417 487.712585,539.861633 486.650269,540.118347 
	C478.394196,542.112732 470.175934,544.320618 461.843018,545.929321 
	C437.097534,550.706665 412.420349,548.747131 387.833801,544.511414 
	C379.465820,543.069824 371.171051,541.202454 362.845184,539.517944 
	C359.595093,538.860352 357.077362,539.875732 356.221893,543.155029 
	C355.383026,546.370667 357.440308,548.103271 360.261749,549.034302 
	C361.364441,549.398193 362.502197,549.681946 363.643738,549.897827 
	C373.299957,551.723694 382.930359,553.711426 392.626495,555.295593 
	C412.927948,558.612610 433.381500,560.205872 453.797974,557.037231 
	C466.763763,555.024902 479.535492,551.730164 492.356232,548.841858 
	C494.916046,548.265198 496.560333,548.220642 498.149139,550.819092 
	C506.838806,565.030334 515.674438,579.153564 524.600159,593.218079 
	C526.322205,595.931641 525.992371,597.534363 523.407959,599.374146 
	C513.526367,606.408691 502.782654,610.710999 490.494080,611.009644 
	C474.229950,611.404907 458.770203,607.638184 443.599426,602.330200 
	C440.124908,601.114563 437.016174,601.073914 435.690186,604.798401 
	C434.199371,608.985779 437.244385,610.854980 440.754974,611.836121 
	C449.731293,614.344910 458.619476,617.344910 467.743469,619.114136 
	C488.893829,623.215454 509.325714,621.667480 527.426819,608.496643 
	C531.527954,605.512573 533.145142,606.877930 535.359863,610.543091 
	C549.401184,633.780518 563.729614,656.844971 577.699097,680.125000 
	C580.243469,684.365112 583.101013,686.648254 588.049072,685.910217 
z"/>
<path fill="#0D0C0C" opacity="1.000000" stroke="none" 
	d="
M588.216309,685.641846 
	C583.101013,686.648254 580.243469,684.365112 577.699097,680.125000 
	C563.729614,656.844971 549.401184,633.780518 535.359863,610.543091 
	C533.145142,606.877930 531.527954,605.512573 527.426819,608.496643 
	C509.325714,621.667480 488.893829,623.215454 467.743469,619.114136 
	C458.619476,617.344910 449.731293,614.344910 440.754974,611.836121 
	C437.244385,610.854980 434.199371,608.985779 435.690186,604.798401 
	C437.016174,601.073914 440.124908,601.114563 443.599426,602.330200 
	C458.770203,607.638184 474.229950,611.404907 490.494080,611.009644 
	C502.782654,610.710999 513.526367,606.408691 523.407959,599.374146 
	C525.992371,597.534363 526.322205,595.931641 524.600159,593.218079 
	C515.674438,579.153564 506.838806,565.030334 498.149139,550.819092 
	C496.560333,548.220642 494.916046,548.265198 492.356232,548.841858 
	C479.535492,551.730164 466.763763,555.024902 453.797974,557.037231 
	C433.381500,560.205872 412.927948,558.612610 392.626495,555.295593 
	C382.930359,553.711426 373.299957,551.723694 363.643738,549.897827 
	C362.502197,549.681946 361.364441,549.398193 360.261749,549.034302 
	C357.440308,548.103271 355.383026,546.370667 356.221893,543.155029 
	C357.077362,539.875732 359.595093,538.860352 362.845184,539.517944 
	C371.171051,541.202454 379.465820,543.069824 387.833801,544.511414 
	C412.420349,548.747131 437.097534,550.706665 461.843018,545.929321 
	C470.175934,544.320618 478.394196,542.112732 486.650269,540.118347 
	C487.712585,539.861633 488.686829,539.240417 490.294342,538.524048 
	C485.468933,530.890808 480.883087,523.593994 476.252686,516.325562 
	C472.672455,510.705719 468.942841,505.178680 465.465393,499.496735 
	C463.784729,496.750671 461.833405,495.754059 458.503937,496.110657 
	C438.313873,498.273132 418.136261,501.145020 397.882233,501.940155 
	C379.650604,502.655914 361.290741,501.521606 343.053436,500.253906 
	C326.954254,499.134796 310.948425,496.685211 294.895966,494.871002 
	C291.564331,494.494446 288.454956,493.861816 287.970154,489.813934 
	C287.559387,486.384583 290.340240,484.262024 294.770111,484.770569 
	C307.840546,486.271027 320.912720,487.774353 333.955353,489.495178 
	C374.087494,494.790222 414.043823,492.858063 453.912567,486.797943 
	C454.382446,486.726532 454.821045,486.449524 455.969055,485.990875 
	C455.149200,484.366425 454.528442,482.750488 453.593475,481.343292 
	C443.359680,465.940002 432.983521,450.630096 422.881042,435.141541 
	C420.695587,431.790924 418.509369,431.042450 414.637512,431.840057 
	C393.260315,436.243652 371.810394,441.051331 349.864655,440.137054 
	C333.790039,439.467346 317.752838,437.266907 301.774933,435.169678 
	C293.546906,434.089691 285.482056,431.757904 277.349182,429.965881 
	C274.078033,429.245117 270.869324,428.121887 271.664154,423.896423 
	C272.519379,419.349884 275.951050,419.652710 279.506866,420.346344 
	C294.377411,423.247192 309.188568,426.569885 324.160614,428.806488 
	C348.146881,432.389557 371.994293,430.114258 395.667114,425.457642 
	C401.306824,424.348267 406.958466,423.299652 413.507721,422.050934 
	C411.073822,418.321899 409.358582,415.529449 407.483124,412.849121 
	C399.652466,401.657898 391.602814,390.614838 384.002716,379.270111 
	C381.243988,375.152130 378.674500,374.551514 374.108856,376.291016 
	C351.309967,384.977386 327.969330,387.875702 304.095886,381.146698 
	C297.865509,379.390625 291.839569,376.890839 285.760773,374.622589 
	C282.544891,373.422607 279.836456,371.450775 281.468262,367.545105 
	C283.042694,363.776794 286.163269,363.982025 289.462860,365.413300 
	C300.680054,370.279083 312.182800,374.081177 324.542389,374.626343 
	C340.400421,375.325745 355.760956,372.995453 370.529205,367.088989 
	C371.394470,366.742920 372.111237,366.025574 373.505798,365.059204 
	C368.304962,357.891235 362.617828,351.296082 358.359406,343.880463 
	C352.575806,333.808929 345.705994,330.272644 334.117279,334.425629 
	C324.913605,337.723907 315.012909,336.026031 305.504791,333.643738 
	C296.457794,331.376984 287.364532,329.295074 278.314514,327.040070 
	C275.129852,326.246552 272.486511,324.531128 273.570435,320.747192 
	C274.591644,317.182129 277.454651,316.687897 280.822388,317.487152 
	C292.000427,320.140045 303.175049,322.819336 314.405029,325.237671 
	C323.589478,327.215424 332.439484,325.216797 342.171448,322.654694 
	C336.479156,315.186523 331.431427,308.428558 326.240082,301.782776 
	C317.012024,289.969238 307.593292,278.302887 298.489746,266.394989 
	C296.153656,263.339294 294.055237,262.311676 290.611481,264.309082 
	C271.571808,275.352203 251.789795,272.481079 231.913712,267.298584 
	C228.689697,266.457977 226.253830,264.671051 227.194717,260.916962 
	C228.138306,257.152222 230.989532,257.017029 234.337296,257.584503 
	C243.830246,259.193634 253.320251,261.111938 262.893646,261.869904 
	C271.901062,262.583069 280.021759,258.916382 288.458557,254.101364 
	C283.636658,248.069748 279.277710,242.459930 274.754486,236.985855 
	C252.370834,209.897003 229.950470,182.838440 207.512894,155.794220 
	C206.355774,154.399536 204.920486,153.235596 203.286652,151.837769 
	C201.851379,148.621445 202.064728,146.027679 205.380493,144.319672 
	C208.129593,142.903549 210.597519,142.504181 212.819458,145.709473 
	C218.806702,153.282318 224.517242,160.634323 230.428040,167.821640 
	C242.806961,182.873947 255.285370,197.844467 267.743439,212.831512 
	C268.767303,214.063217 269.947327,215.165100 271.458344,216.750824 
	C274.836548,212.585754 277.008698,208.643433 276.513580,203.691406 
	C276.066406,199.219193 275.468140,194.759232 274.819031,190.311005 
	C274.341034,187.035034 275.221283,184.549545 278.700714,183.936829 
	C282.198669,183.320816 283.875641,185.470154 284.593872,188.620865 
	C287.295044,200.470856 288.202362,212.025238 280.168579,222.558594 
	C279.314514,223.678406 279.372314,226.641617 280.256989,227.768127 
	C294.454956,245.847672 308.851654,263.771179 323.229797,281.708862 
	C323.722107,282.323059 324.491211,282.715332 325.776154,283.710388 
	C332.023468,274.886871 337.320007,265.826874 338.060577,255.198883 
	C338.488220,249.061447 336.567169,242.772034 335.837677,236.535294 
	C335.615112,234.632050 335.255920,232.379608 336.040344,230.836746 
	C336.693848,229.551468 339.096039,228.202774 340.422241,228.456650 
	C342.026794,228.763840 344.062042,230.460907 344.619995,232.018814 
	C349.004028,244.259766 350.682465,256.680084 344.874603,268.967743 
	C341.608765,275.877167 337.711090,282.488434 334.461426,289.404724 
	C333.638123,291.156921 333.292786,294.232147 334.271973,295.565277 
	C345.809143,311.272705 357.637512,326.766266 369.406464,342.303101 
	C369.782166,342.799042 370.342499,343.155090 371.349548,344.049561 
	C373.323669,341.109863 375.233826,338.470886 376.932220,335.701996 
	C385.962250,320.980164 394.109009,305.759766 395.409058,288.193481 
	C396.142334,278.285156 395.251251,268.243958 394.859283,258.271790 
	C394.718597,254.692871 394.515991,251.102936 398.994629,250.612747 
	C403.851746,250.081131 404.299072,254.003128 404.857117,257.603333 
	C409.947845,290.444427 400.433441,319.466431 382.064850,346.321198 
	C376.741974,354.103210 376.359344,352.015045 382.459198,360.324554 
	C386.500427,365.829742 390.568481,371.326294 394.333069,377.019440 
	C396.641083,380.509796 398.427368,380.434326 401.264191,377.554413 
	C422.557404,355.937958 436.991516,330.843536 440.938110,300.335999 
	C441.045013,299.509735 441.112976,298.674805 441.279968,297.860504 
	C441.930023,294.689697 443.196320,291.805878 447.046722,292.334778 
	C451.084351,292.889404 451.697083,295.905365 451.257050,299.476166 
	C447.590332,329.232422 434.904053,354.805511 415.268616,377.144775 
	C412.411865,380.394867 409.392029,383.520752 406.245819,386.490265 
	C404.263062,388.361633 403.485809,389.958130 405.228363,392.469086 
	C417.192017,409.708740 429.078003,427.002319 440.980621,444.284302 
	C441.359802,444.834839 441.648407,445.447754 442.425873,446.819702 
	C447.722473,440.706024 452.485779,435.448120 456.984436,429.972748 
	C474.276550,408.926636 483.706146,384.079712 491.267731,358.368652 
	C493.522491,350.702026 495.480713,342.948242 497.583649,335.236786 
	C497.802551,334.434082 498.044800,333.633728 498.340454,332.856720 
	C499.458527,329.918427 501.874084,328.188354 504.541779,329.618591 
	C506.192932,330.503784 508.010651,333.760651 507.599152,335.417938 
	C497.668396,375.413666 485.866516,414.574982 456.696991,445.747772 
	C448.010864,455.030426 448.238373,455.214386 455.064972,465.679047 
	C464.257996,479.771179 473.519897,493.820221 482.526672,508.030731 
	C484.890289,511.759918 486.577148,512.370117 490.670044,509.869904 
	C516.852112,493.876373 530.826416,469.799805 537.536804,440.708069 
	C539.371033,432.756226 541.235352,424.811310 543.093506,416.865051 
	C543.873169,413.531097 545.322937,410.408813 549.341614,411.283020 
	C553.575989,412.204132 553.743713,415.539612 552.758789,419.219299 
	C549.060303,433.036133 545.950867,447.031036 541.724243,460.681610 
	C533.998230,485.634338 517.985229,504.335815 496.017212,518.028992 
	C492.119568,520.458496 491.611267,522.387268 494.135406,526.221497 
	C501.370331,537.211426 508.156128,548.496826 515.374207,559.498291 
	C516.416382,561.086670 519.223450,563.036926 520.608398,562.650452 
	C538.569458,557.637939 553.970459,549.001099 561.785095,530.853149 
	C564.151245,525.358337 565.886414,519.591553 567.901489,513.946045 
	C568.236816,513.006592 568.236023,511.632141 568.889526,511.180389 
	C570.842468,509.830414 573.210999,507.686432 575.109863,507.962982 
	C578.394775,508.441376 578.935486,511.458649 578.138489,514.676697 
	C571.239929,542.530212 556.032837,562.863098 527.357483,571.107727 
	C526.567200,571.334961 525.818970,571.735840 525.086670,572.123108 
	C524.822205,572.262939 524.662415,572.600647 524.061462,573.317261 
	C527.127258,578.364136 530.282715,583.591248 533.469543,588.799072 
	C550.861023,617.219666 568.245667,645.644531 585.688660,674.033447 
	C586.892517,675.992859 588.551636,677.672424 590.320740,679.772705 
	C589.889465,681.833374 589.136475,683.603394 588.216309,685.641846 
z"/>
<path fill="#267B51" opacity="1.000000" stroke="none" 
	d="
M614.876953,781.103821 
	C614.477844,788.075928 611.229065,790.532349 604.636780,789.338623 
	C600.423828,788.575684 596.104309,788.411987 591.838257,787.929077 
	C587.829407,787.475281 584.738586,785.898071 582.914307,781.889221 
	C581.852844,779.556641 580.003357,777.455688 578.125061,775.649170 
	C574.617615,772.275757 569.533325,771.998352 565.456665,774.776001 
	C558.812622,779.302795 554.967651,785.159485 554.747192,793.681824 
	C554.600708,799.345276 555.231628,804.430908 558.515808,808.943481 
	C563.878418,816.312012 571.853577,816.968079 578.049988,810.420471 
	C581.177185,807.115845 584.591614,805.480713 589.084778,806.059509 
	C594.647827,806.776062 600.248108,807.269714 605.769165,808.224854 
	C610.010681,808.958557 611.895874,812.896118 610.401489,816.995605 
	C605.227844,831.188171 590.862366,841.522400 575.851807,841.979065 
	C573.225220,842.058960 570.539246,843.173523 568.005554,842.845703 
	C549.731018,840.481262 535.120422,834.412842 527.044678,813.158386 
	C523.377747,803.507446 524.621887,794.047546 525.401062,784.373230 
	C526.165222,774.885925 530.873169,767.033813 536.304871,759.804321 
	C542.576538,751.456848 552.138672,748.091187 562.000305,746.178711 
	C573.556824,743.937561 584.334351,746.663269 594.807007,751.889160 
	C604.081360,756.517151 609.336792,763.978638 612.939209,773.642639 
	C612.585938,765.624939 612.409119,757.663879 623.064636,755.664368 
	C623.064636,751.234741 623.102783,746.927368 623.054260,742.620911 
	C623.003174,738.080383 624.961060,735.358826 629.687134,735.052490 
	C634.966492,734.710205 640.244751,734.193604 645.528503,734.121765 
	C650.669312,734.051941 652.742554,736.268311 652.922852,741.342712 
	C652.993835,743.339172 652.936157,745.340088 652.942322,747.338989 
	C652.966248,755.102112 654.544434,756.368958 662.281006,754.839966 
	C668.192993,753.671448 671.286804,755.946045 671.934204,762.017395 
	C672.319153,765.627502 672.881042,769.249634 672.865906,772.864319 
	C672.843445,778.232849 670.286377,780.704407 664.969604,780.905945 
	C661.517639,781.036865 658.056641,780.930603 653.947327,780.930603 
	C654.317505,785.147949 654.827271,788.686646 654.897461,792.233948 
	C655.039185,799.393860 654.908142,806.558716 654.954224,813.721130 
	C654.990051,819.299805 656.494812,820.607971 661.946960,820.102173 
	C668.616516,819.483398 674.154846,820.846680 674.035950,829.808655 
	C673.985840,833.587708 674.875671,837.376953 674.859497,841.159424 
	C674.839966,845.748657 671.946838,848.903687 667.471252,848.840759 
	C658.143494,848.709656 648.701355,850.381287 639.765930,845.218628 
	C635.750916,842.898865 632.166321,841.037231 630.251892,836.555298 
	C627.186890,829.379456 624.645142,822.309387 624.912598,814.192261 
	C625.260376,803.639954 624.547607,793.052673 624.299683,782.828064 
	C621.015076,781.947693 618.650391,781.313904 615.795044,780.306396 
	C614.962769,779.859680 614.621094,779.786743 614.279480,779.713745 
	C614.478638,780.177124 614.677795,780.640503 614.876953,781.103821 
M603.688477,812.520020 
	C598.386597,811.952026 593.093567,811.212585 587.776489,810.937012 
	C586.453064,810.868408 585.039124,812.275513 583.688843,813.043152 
	C579.800598,815.253662 576.043213,819.108337 572.020081,819.404358 
	C559.567566,820.320801 554.236084,815.824585 551.094482,803.630371 
	C548.665527,794.202393 549.628906,785.268005 555.425171,777.096436 
	C561.371582,768.713196 568.549561,765.872559 577.962280,769.245056 
	C580.821167,770.269470 584.472900,772.713867 585.229370,775.260132 
	C587.141541,781.696533 591.016724,784.034302 597.178406,784.014954 
	C598.503418,784.010803 599.829285,784.280945 601.154724,784.424377 
	C608.720764,785.242981 608.550476,785.251343 608.208008,778.311340 
	C607.774414,769.525879 602.376282,763.258789 596.109131,758.886475 
	C588.292236,753.432800 579.528564,749.400269 568.898193,750.859070 
	C562.788940,751.697388 557.276917,752.606140 551.433044,755.105225 
	C540.099121,759.952148 534.354248,769.335815 531.376221,779.576904 
	C528.475159,789.553162 527.816345,800.334656 531.698364,811.090149 
	C537.476624,827.099060 549.334473,835.064331 564.916321,837.633057 
	C571.276489,838.681580 578.484009,836.983459 584.850647,835.041931 
	C594.548523,832.084351 600.932190,824.621399 605.755737,815.941772 
	C606.128418,815.271301 604.991211,813.761719 603.688477,812.520020 
M653.234253,776.495422 
	C657.062561,776.386047 661.093750,777.007629 664.676453,776.013428 
	C671.882080,774.013855 666.604187,768.003784 667.720520,763.954834 
	C668.400208,761.489990 667.888428,758.880127 663.997986,759.205383 
	C660.186768,759.524109 656.337646,759.372437 652.520691,759.645142 
	C649.889771,759.833130 648.903870,758.770813 648.881958,756.239868 
	C648.843018,751.744507 648.527893,747.248962 648.580200,742.756409 
	C648.616089,739.674011 647.305603,738.631226 644.356750,738.808350 
	C640.037048,739.067749 635.704468,739.200623 631.376953,739.212402 
	C628.608032,739.219971 627.497131,740.293762 627.692993,743.128235 
	C627.968323,747.112000 627.755188,751.134155 628.122070,755.105652 
	C628.459900,758.762024 627.780579,760.689514 623.457031,760.619446 
	C621.758057,760.591858 619.173340,762.295349 618.515442,763.853821 
	C617.618958,765.977112 618.380310,768.741089 618.075073,771.185852 
	C617.449524,776.196289 619.235596,778.414795 624.430176,777.355896 
	C627.637939,776.702026 628.994629,778.045654 628.924805,781.370972 
	C628.837524,785.528564 628.841858,789.719849 629.262573,793.850159 
	C630.459106,805.596802 628.115723,817.559204 632.332458,829.178589 
	C634.713989,835.741333 643.428406,844.252380 650.433044,844.398865 
	C655.920105,844.513611 661.425842,844.264160 666.903076,843.885071 
	C668.000305,843.809082 669.913147,842.411865 669.908325,841.633362 
	C669.876099,836.361267 669.429871,831.091675 669.117493,825.821289 
	C665.194641,825.638794 661.271729,825.455872 657.348816,825.275391 
	C657.182861,825.267761 657.015747,825.278809 656.849426,825.287109 
	C652.906189,825.483521 650.952454,823.366760 650.822266,819.660706 
	C650.360168,806.513855 649.945740,793.363647 649.759338,780.211243 
	C649.742065,778.994019 651.469604,777.752075 653.234253,776.495422 
z"/>
<path fill="#267C52" opacity="1.000000" stroke="none" 
	d="
M249.660385,670.473755 
	C247.238220,675.421021 243.927689,676.760986 238.886780,675.085083 
	C229.386047,671.926575 219.743118,669.195801 209.643600,666.130676 
	C208.053055,671.323486 206.588470,676.105103 204.987152,681.333069 
	C213.643524,684.035278 221.608826,686.667419 229.663437,688.989685 
	C236.030182,690.825256 237.787308,693.640747 235.871674,699.833862 
	C234.848389,703.142029 233.926849,706.482483 232.861374,709.776672 
	C231.440262,714.170288 228.489883,715.774231 224.004776,714.428650 
	C216.576355,712.200134 209.067108,710.207886 201.744034,707.676147 
	C198.349579,706.502625 196.817154,707.247131 195.907990,710.530029 
	C194.516846,715.553284 192.963272,720.531555 191.412415,725.751892 
	C201.537827,728.904602 211.316132,731.872009 221.041168,735.004700 
	C227.436111,737.064819 228.600266,739.540710 226.599625,745.676025 
	C225.526276,748.967590 224.770660,752.371765 223.553925,755.605469 
	C221.898544,760.005127 218.376221,761.747864 214.051300,760.428040 
	C197.323624,755.323730 180.590118,750.235718 163.911530,744.974426 
	C155.859543,742.434326 155.248505,740.641968 157.698425,732.666443 
	C167.242584,701.596130 176.676468,670.491882 186.121841,639.391296 
	C187.513275,634.809814 190.599731,633.023376 195.832123,634.543396 
	C206.921265,637.764771 217.940674,641.225830 228.993607,644.572327 
	C235.150436,646.436462 241.303101,648.316711 247.483719,650.099304 
	C252.606415,651.576782 254.419312,654.710876 252.904938,659.683777 
	C251.848145,663.153992 250.841110,666.639404 249.660385,670.473755 
M190.838272,711.295166 
	C191.475906,709.226379 192.329208,707.195862 192.703918,705.080505 
	C193.373947,701.298035 195.178864,700.636719 198.686188,701.884583 
	C204.329971,703.892700 210.128265,705.466248 215.859726,707.228455 
	C227.938309,710.941956 227.824829,710.909485 231.442154,698.820923 
	C232.396057,695.633118 231.716217,694.400574 228.563400,693.512573 
	C220.229584,691.165283 212.029343,688.341614 203.687286,686.026978 
	C200.219833,685.064880 198.955750,683.825562 200.328812,680.119141 
	C202.234573,674.974670 203.812317,669.685547 205.153442,664.363342 
	C206.042038,660.836975 207.582565,660.378906 210.869476,661.464294 
	C220.514404,664.649231 230.270401,667.497803 239.983093,670.477539 
	C242.071701,671.118347 244.222916,672.129272 245.149033,668.858765 
	C246.358719,664.586975 247.676941,660.345947 248.887146,656.296814 
	C248.230560,655.747375 248.010391,655.429260 247.719513,655.338928 
	C230.066910,649.861389 212.403137,644.419739 194.756638,638.922607 
	C192.246506,638.140564 191.173523,639.059814 190.442657,641.456177 
	C180.870346,672.841064 171.235962,704.207153 161.576492,735.565369 
	C160.867432,737.867126 161.094864,739.285339 163.724960,740.079590 
	C180.783356,745.230713 197.794388,750.539917 214.883591,755.585083 
	C216.012497,755.918335 218.516418,754.838806 218.914688,753.834900 
	C220.552048,749.707581 221.622238,745.355286 223.006882,740.732483 
	C221.111557,740.068176 219.589172,739.478882 218.033218,738.998413 
	C208.486038,736.049927 198.969833,732.989868 189.357681,730.269470 
	C186.088364,729.344238 185.490570,727.980286 186.603409,724.935242 
	C188.144699,720.717957 189.302536,716.360596 190.838272,711.295166 
z"/>
<path fill="#257B51" opacity="1.000000" stroke="none" 
	d="
M910.018433,743.907349 
	C912.831787,752.450745 915.641357,760.579773 918.277588,768.764648 
	C920.051270,774.271240 918.506165,777.155945 913.064331,779.013855 
	C908.839172,780.456299 904.612183,781.898743 900.351013,783.229004 
	C894.719177,784.987183 891.849854,783.571777 890.010132,778.189819 
	C885.304810,764.424805 880.619019,750.652954 875.945435,736.877014 
	C873.621765,730.027466 868.822571,726.250427 861.771606,725.792603 
	C856.702942,725.463501 849.716125,730.440552 849.156372,735.562073 
	C848.740051,739.371033 848.894714,743.530090 850.001160,747.166260 
	C854.091797,760.609985 858.711426,773.892090 863.072388,787.254517 
	C864.796082,792.535950 863.165466,795.983154 858.030029,797.803467 
	C853.668030,799.349731 849.228577,800.679871 844.811646,802.068115 
	C839.117798,803.857666 836.915344,802.776428 835.008911,797.181458 
	C828.023315,776.680298 821.069702,756.168152 814.087830,735.665771 
	C813.022766,732.538025 811.770386,729.471313 810.781372,726.320984 
	C808.407471,718.759705 811.050659,713.968445 818.553223,711.744995 
	C822.197632,710.664978 826.177856,707.717590 829.298889,708.486328 
	C836.124207,710.167603 839.796143,706.385864 844.918823,703.478943 
	C852.701782,699.062256 861.385986,695.527710 870.835449,696.087708 
	C882.311523,696.767822 896.761658,705.493164 900.881104,717.268250 
	C903.937683,726.005005 906.923584,734.766418 910.018433,743.907349 
M817.598145,716.985291 
	C816.685303,719.324219 814.457214,722.092102 815.058960,723.937195 
	C822.808777,747.700012 830.993713,771.320557 838.972046,795.009705 
	C839.921021,797.827209 841.142151,798.759155 844.073425,797.549438 
	C847.608765,796.090637 851.248291,794.787964 854.953918,793.864014 
	C858.934448,792.871460 859.856934,791.230225 858.393799,787.174255 
	C853.533325,773.700378 848.778687,760.169556 844.670105,746.454773 
	C843.454102,742.395508 843.423584,737.300232 844.740234,733.302307 
	C847.648682,724.471313 853.983337,720.216187 863.930481,720.959412 
	C871.004272,721.487915 876.483826,724.342224 878.761841,731.046875 
	C883.854797,746.036316 889.011292,761.004578 893.992310,776.031067 
	C894.991150,779.044189 896.223633,780.089172 899.379089,778.751404 
	C902.898071,777.259521 906.550537,775.985229 910.255127,775.055420 
	C914.074219,774.096924 914.836914,772.508850 913.473267,768.690491 
	C908.264038,754.104553 903.190796,739.460632 898.533875,724.691040 
	C896.453552,718.093323 893.087708,712.317322 887.876404,708.294006 
	C883.421631,704.854919 877.826599,701.524597 872.459167,701.005005 
	C866.611267,700.438965 860.465149,703.274536 854.411438,704.430359 
	C847.267334,705.794434 843.688416,711.427368 839.509094,716.406372 
	C838.615662,717.470642 837.511047,718.357727 836.503723,719.326477 
	C835.689392,718.199524 834.441711,717.176208 834.142456,715.925964 
	C833.262817,712.249939 831.310425,712.043274 828.244629,713.307678 
	C825.016479,714.638977 821.639709,715.610046 817.598145,716.985291 
z"/>
<path fill="#257B50" opacity="1.000000" stroke="none" 
	d="
M268.228485,729.452759 
	C265.686951,737.577209 266.220856,744.380737 273.211609,749.923279 
	C278.044830,753.755310 283.854889,753.824768 288.796539,750.005920 
	C290.931519,748.356079 294.363068,746.909851 296.791962,747.404114 
	C302.899872,748.646973 308.877625,750.777954 314.709320,753.059570 
	C320.475708,755.315674 321.629395,758.424316 317.925873,763.438660 
	C315.086609,767.282776 311.084229,770.406494 307.190735,773.301331 
	C301.132996,777.805176 294.255127,780.878601 286.615082,781.099426 
	C278.193054,781.342773 269.749664,781.025940 262.150146,776.476807 
	C260.221252,775.322083 258.106110,774.481750 256.097473,773.456055 
	C254.625671,772.704468 252.801056,772.216858 251.797791,771.043701 
	C245.111572,763.225159 239.039871,755.039551 238.032333,744.268005 
	C237.802032,741.805908 237.172195,739.368347 237.090775,736.907410 
	C236.609772,722.369629 240.991608,709.204834 250.459991,698.384644 
	C260.525482,686.882141 273.707184,683.324341 289.071564,684.638977 
	C299.638367,685.543091 308.359131,689.536011 315.695618,696.170105 
	C323.672424,703.383362 328.204681,712.906189 328.472656,724.029480 
	C328.499390,725.140259 328.738861,726.244690 328.853394,727.354736 
	C329.462799,733.260681 324.505432,736.998169 318.964600,734.959717 
	C315.406921,733.650879 311.812225,732.120422 308.106812,731.605225 
	C301.295776,730.658447 298.817902,725.927917 297.112335,720.350525 
	C294.504883,711.824036 283.122894,708.593628 277.413361,715.218994 
	C273.847992,719.356323 271.358063,724.420410 268.228485,729.452759 
M315.594330,728.987488 
	C317.996429,729.568604 320.398529,730.149780 322.800598,730.730896 
	C323.035217,728.580139 323.243927,726.426270 323.509003,724.279236 
	C324.570862,715.678650 320.706238,708.326294 315.274780,702.853027 
	C308.581665,696.108276 300.766876,690.546814 290.126587,689.810486 
	C283.908783,689.380310 278.308136,689.376465 272.092407,690.655212 
	C259.991150,693.144714 252.671585,701.537903 247.780075,710.844116 
	C243.085556,719.775513 240.676559,730.080261 242.153259,741.243225 
	C244.496933,758.960144 255.273087,768.407715 270.318573,774.666504 
	C272.659882,775.640503 275.866089,774.424011 278.321106,775.256409 
	C286.202148,777.928467 293.355377,775.902466 299.931702,771.960632 
	C304.483368,769.232361 308.442566,765.448486 312.440216,761.882568 
	C316.168518,758.556885 315.977814,758.085876 311.222229,756.578918 
	C306.934387,755.220215 302.589020,754.035400 298.334290,752.582764 
	C295.784576,751.712341 293.992096,751.407837 291.985962,754.119507 
	C290.689392,755.872070 287.818085,757.100830 285.514832,757.365112 
	C268.501770,759.317444 260.310791,748.261597 262.244965,734.143250 
	C263.318115,726.310120 266.020050,718.656189 272.396179,712.190308 
	C279.527985,704.958130 290.513519,706.007874 297.562531,711.430359 
	C300.468719,713.665955 301.321014,716.259827 301.896362,719.736145 
	C303.057434,726.751282 309.542633,727.101624 315.594330,728.987488 
z"/>
<path fill="#267C51" opacity="1.000000" stroke="none" 
	d="
M468.142090,808.928589 
	C463.282471,808.284424 458.885620,807.270691 454.471954,807.191467 
	C452.668854,807.158997 450.122803,808.719055 449.152985,810.309570 
	C447.109436,813.661255 445.971252,817.552307 444.297577,821.145630 
	C442.440430,825.132874 439.322205,827.368225 434.784882,826.905396 
	C430.364105,826.454590 425.901581,826.074341 421.573303,825.131226 
	C413.980927,823.476807 411.869263,818.592651 415.282806,811.528625 
	C419.595795,802.603088 423.866394,793.657104 428.170135,784.727112 
	C437.150848,766.092468 446.151978,747.467529 455.117401,728.825500 
	C456.621857,725.697266 457.928833,722.473999 459.435822,719.346985 
	C461.256958,715.568054 463.676086,713.529846 468.488983,714.619019 
	C473.284302,715.704285 478.334564,715.779419 483.286621,716.028931 
	C490.842072,716.409546 493.196960,718.690063 495.044495,726.122253 
	C498.289215,739.175293 502.053925,752.098389 505.405548,765.126099 
	C506.346436,768.783325 506.309479,772.690247 507.228333,776.355408 
	C510.933258,791.133301 514.864868,805.854187 518.638184,820.615173 
	C519.248535,823.002747 519.686890,825.473816 519.842041,827.929199 
	C520.087402,831.813660 518.100037,834.841064 514.258301,834.730774 
	C507.694550,834.542236 501.010620,834.003357 494.681885,832.405029 
	C492.160645,831.768250 489.827850,828.217529 488.523224,825.465271 
	C486.787354,821.803284 486.393219,817.526001 484.899506,813.718262 
	C484.300354,812.190918 482.464294,810.432861 480.925079,810.129272 
	C476.894348,809.334351 472.717010,809.282837 468.142090,808.928589 
M491.698608,818.688904 
	C492.142212,820.208801 492.325287,821.878052 493.091064,823.213135 
	C494.211853,825.167053 495.471741,828.078674 497.163269,828.472229 
	C502.150665,829.632690 507.372772,829.880920 512.520752,830.155273 
	C513.333557,830.198547 515.015442,828.466858 514.955566,827.654663 
	C514.767578,825.106140 514.020386,822.582886 513.343994,820.089417 
	C511.578339,813.580261 509.565155,807.133850 507.962677,800.586060 
	C505.568207,790.801758 503.439697,780.952332 501.200897,771.130005 
	C500.060303,766.125854 498.957642,761.112793 497.779999,756.117371 
	C496.564728,750.962402 495.245728,745.831970 494.033936,740.676270 
	C492.822906,735.523804 491.956024,730.268921 490.367584,725.239197 
	C489.848663,723.596069 487.693146,721.632996 486.020294,721.341431 
	C479.964691,720.285889 473.800842,719.824951 467.665436,719.279480 
	C466.638641,719.188171 464.979187,719.462646 464.593140,720.133118 
	C463.237549,722.487305 462.365997,725.114136 461.209686,727.590332 
	C458.156860,734.127625 455.070221,740.649353 451.960052,747.159546 
	C449.751312,751.782898 447.432373,756.353882 445.253906,760.991150 
	C443.010468,765.766541 440.973145,770.640198 438.672913,775.387085 
	C435.658600,781.607544 432.431213,787.724426 429.375885,793.925476 
	C426.061371,800.652466 422.774048,807.394775 419.623383,814.199158 
	C418.853363,815.862122 418.663208,817.793640 418.060699,820.178650 
	C424.596893,820.898560 430.338043,821.630432 436.101624,822.062256 
	C437.001678,822.129639 438.429993,821.043152 438.885132,820.127808 
	C440.817627,816.241455 442.042847,811.935974 444.387054,808.345520 
	C445.924683,805.990479 446.103546,801.687561 450.854218,802.247009 
	C462.263733,803.590454 473.720398,804.558533 485.100159,806.104004 
	C486.857971,806.342773 488.861298,808.557190 489.763397,810.353821 
	C490.885986,812.589600 490.982452,815.340698 491.698608,818.688904 
z"/>
<path fill="#257B50" opacity="1.000000" stroke="none" 
	d="
M682.716064,769.309204 
	C680.296753,761.834290 680.429260,761.184448 685.307373,756.362244 
	C678.616577,753.897217 672.444397,750.786133 670.353210,743.363770 
	C668.828125,737.950928 669.295959,732.838989 672.546265,727.848389 
	C676.262634,722.142029 690.150696,719.513916 696.858582,723.497986 
	C707.634705,729.898254 706.471619,738.778015 699.028687,751.988708 
	C705.237427,751.274658 707.441589,755.070740 709.122559,760.105469 
	C716.864380,783.292725 724.828186,806.405701 732.679382,829.556580 
	C735.401245,837.582520 734.078430,840.163940 726.064880,842.828430 
	C723.243530,843.766479 720.417664,844.690918 717.597290,845.631958 
	C711.941956,847.518860 709.302734,846.661987 707.153870,840.962585 
	C703.718445,831.851379 700.839478,822.530640 697.710449,813.303589 
	C692.777588,798.757202 687.832397,784.215088 682.716064,769.309204 
M691.528442,780.975037 
	C696.944580,796.894775 702.363892,812.813354 707.775879,828.734497 
	C712.607056,842.946838 712.578186,842.881836 726.673645,837.489868 
	C729.084290,836.567749 729.800903,835.547180 728.965942,833.104370 
	C720.566956,808.533020 712.212341,783.946533 703.879150,759.352844 
	C703.111755,757.087952 702.107422,756.026978 699.504089,757.079041 
	C695.960022,758.511230 692.310669,759.719788 688.635925,760.779724 
	C685.891479,761.571350 685.287292,762.970520 686.246765,765.583191 
	C688.025330,770.426758 689.610779,775.341248 691.528442,780.975037 
M694.515137,727.899902 
	C687.019958,724.077148 678.359253,726.397278 675.310547,733.044678 
	C673.052429,737.968323 675.755737,746.468933 680.569885,748.961182 
	C682.255981,749.834167 684.370789,750.809082 686.092957,750.528564 
	C696.024597,748.910889 697.285034,747.007568 699.798645,737.216675 
	C701.103577,732.133667 696.696228,731.216248 694.515137,727.899902 
z"/>
<path fill="#247A50" opacity="1.000000" stroke="none" 
	d="
M810.257324,747.701782 
	C813.330750,754.448853 817.143433,760.639954 818.885742,767.367188 
	C821.486389,777.408875 820.843506,787.624146 815.912292,797.183594 
	C814.625549,799.677979 813.951111,802.559937 812.350403,804.803772 
	C809.998596,808.100403 807.523193,811.637878 804.281250,813.897278 
	C798.672485,817.806274 792.805847,822.379272 786.390259,823.898132 
	C768.776733,828.068115 752.011963,826.352112 738.578308,812.065186 
	C730.551758,803.528748 726.622375,792.846130 724.597595,781.939514 
	C723.188232,774.347351 724.766174,766.026428 728.700073,758.697388 
	C730.181641,755.937256 730.911438,752.730347 732.616089,750.143677 
	C735.012634,746.506958 737.376099,742.291443 740.863281,740.048096 
	C747.801147,735.584839 754.277771,729.654297 763.528564,729.952820 
	C767.692322,730.087219 771.878479,729.198975 776.062927,729.083313 
	C787.762146,728.759827 796.517700,735.787231 805.713989,741.479919 
	C807.644836,742.675171 808.642578,745.377747 810.257324,747.701782 
M806.006531,749.656860 
	C802.130737,746.458618 798.446777,742.984741 794.336304,740.123657 
	C787.330688,735.247437 779.389954,732.796448 770.832581,733.258057 
	C766.351074,733.499695 761.580627,733.813049 757.549927,735.526855 
	C753.107727,737.415710 749.617554,741.446594 745.262695,743.658569 
	C736.451904,748.134033 733.818420,756.944153 731.231750,764.873840 
	C728.747009,772.490784 727.923889,781.170715 731.711609,789.171692 
	C733.849731,793.688232 735.548828,798.560364 738.457825,802.530823 
	C743.240112,809.058167 748.353882,815.828064 756.353088,818.567017 
	C766.000854,821.870361 776.086060,821.505554 785.927185,819.209045 
	C788.881409,818.519653 791.490601,816.178162 794.145752,814.423828 
	C797.460144,812.233765 801.343384,810.421021 803.743958,807.446960 
	C807.197815,803.167664 809.790039,798.116577 812.295349,793.164917 
	C816.705566,784.448181 815.971619,775.149780 813.562744,766.209229 
	C812.071167,760.673462 808.786194,755.620911 806.006531,749.656860 
z"/>
<path fill="#257B50" opacity="1.000000" stroke="none" 
	d="
M394.850586,717.129883 
	C408.978394,723.532043 415.355591,735.152954 417.919586,749.320618 
	C420.861786,765.578125 415.466248,780.012268 406.174530,792.713745 
	C401.731262,798.787415 394.711273,802.583801 387.007080,805.245239 
	C377.940277,808.377502 368.941895,808.365967 360.151764,806.692078 
	C349.203613,804.607300 338.705750,800.152649 332.745178,789.856018 
	C328.979523,783.351013 325.909271,776.236572 323.873016,769.015869 
	C322.676880,764.774475 324.674194,759.739380 324.261353,755.148804 
	C323.300018,744.458374 329.642181,736.581665 334.466675,728.373657 
	C339.339355,720.083618 348.166565,716.287415 356.959930,713.125732 
	C359.566803,712.188416 362.378479,711.837402 365.042816,711.039246 
	C369.729218,709.635498 374.149445,712.006409 378.502350,711.979980 
	C384.708740,711.942200 389.465576,714.429932 394.850586,717.129883 
M342.634216,792.914795 
	C344.344696,794.080322 345.990051,795.361389 347.786346,796.374817 
	C349.210297,797.178101 351.253937,797.247925 352.274323,798.341492 
	C358.136444,804.623230 366.360626,802.998657 372.962341,802.815979 
	C381.870789,802.569519 391.571259,800.689148 398.148590,792.912048 
	C401.763641,788.637512 406.583679,784.722229 408.405243,779.746155 
	C411.109406,772.358948 415.475647,764.963379 413.547150,756.423950 
	C412.099762,750.014954 412.181000,742.613586 408.827820,737.438477 
	C404.160980,730.235840 398.968536,722.734802 389.213501,720.075989 
	C385.643066,719.102844 381.836395,718.269409 378.352112,716.991333 
	C370.013672,713.932678 362.235809,715.921143 354.747894,718.846008 
	C340.916351,724.248718 334.333710,736.262634 329.278412,749.203064 
	C328.394989,751.464478 328.980743,754.302368 328.900269,756.874451 
	C328.780304,760.708008 327.986420,764.673279 328.691589,768.349976 
	C330.493378,777.744263 334.922546,785.915039 342.634216,792.914795 
z"/>
<path fill="#E9FAF3" opacity="1.000000" stroke="none" 
	d="
M604.122070,812.581055 
	C604.991211,813.761719 606.128418,815.271301 605.755737,815.941772 
	C600.932190,824.621399 594.548523,832.084351 584.850647,835.041931 
	C578.484009,836.983459 571.276489,838.681580 564.916321,837.633057 
	C549.334473,835.064331 537.476624,827.099060 531.698364,811.090149 
	C527.816345,800.334656 528.475159,789.553162 531.376221,779.576904 
	C534.354248,769.335815 540.099121,759.952148 551.433044,755.105225 
	C557.276917,752.606140 562.788940,751.697388 568.898193,750.859070 
	C579.528564,749.400269 588.292236,753.432800 596.109131,758.886475 
	C602.376282,763.258789 607.774414,769.525879 608.208008,778.311340 
	C608.550476,785.251343 608.720764,785.242981 601.154724,784.424377 
	C599.829285,784.280945 598.503418,784.010803 597.178406,784.014954 
	C591.016724,784.034302 587.141541,781.696533 585.229370,775.260132 
	C584.472900,772.713867 580.821167,770.269470 577.962280,769.245056 
	C568.549561,765.872559 561.371582,768.713196 555.425171,777.096436 
	C549.628906,785.268005 548.665527,794.202393 551.094482,803.630371 
	C554.236084,815.824585 559.567566,820.320801 572.020081,819.404358 
	C576.043213,819.108337 579.800598,815.253662 583.688843,813.043152 
	C585.039124,812.275513 586.453064,810.868408 587.776489,810.937012 
	C593.093567,811.212585 598.386597,811.952026 604.122070,812.581055 
z"/>
<path fill="#E8F9F3" opacity="1.000000" stroke="none" 
	d="
M652.810608,776.508484 
	C651.469604,777.752075 649.742065,778.994019 649.759338,780.211243 
	C649.945740,793.363647 650.360168,806.513855 650.822266,819.660706 
	C650.952454,823.366760 652.906189,825.483521 656.849426,825.287109 
	C657.015747,825.278809 657.182861,825.267761 657.348816,825.275391 
	C661.271729,825.455872 665.194641,825.638794 669.117493,825.821289 
	C669.429871,831.091675 669.876099,836.361267 669.908325,841.633362 
	C669.913147,842.411865 668.000305,843.809082 666.903076,843.885071 
	C661.425842,844.264160 655.920105,844.513611 650.433044,844.398865 
	C643.428406,844.252380 634.713989,835.741333 632.332458,829.178589 
	C628.115723,817.559204 630.459106,805.596802 629.262573,793.850159 
	C628.841858,789.719849 628.837524,785.528564 628.924805,781.370972 
	C628.994629,778.045654 627.637939,776.702026 624.430176,777.355896 
	C619.235596,778.414795 617.449524,776.196289 618.075073,771.185852 
	C618.380310,768.741089 617.618958,765.977112 618.515442,763.853821 
	C619.173340,762.295349 621.758057,760.591858 623.457031,760.619446 
	C627.780579,760.689514 628.459900,758.762024 628.122070,755.105652 
	C627.755188,751.134155 627.968323,747.112000 627.692993,743.128235 
	C627.497131,740.293762 628.608032,739.219971 631.376953,739.212402 
	C635.704468,739.200623 640.037048,739.067749 644.356750,738.808350 
	C647.305603,738.631226 648.616089,739.674011 648.580200,742.756409 
	C648.527893,747.248962 648.843018,751.744507 648.881958,756.239868 
	C648.903870,758.770813 649.889771,759.833130 652.520691,759.645142 
	C656.337646,759.372437 660.186768,759.524109 663.997986,759.205383 
	C667.888428,758.880127 668.400208,761.489990 667.720520,763.954834 
	C666.604187,768.003784 671.882080,774.013855 664.676453,776.013428 
	C661.093750,777.007629 657.062561,776.386047 652.810608,776.508484 
z"/>
<path fill="#000000" opacity="1.000000" stroke="none" 
	d="
M615.069824,780.911987 
	C614.677795,780.640503 614.478638,780.177124 614.279480,779.713745 
	C614.621094,779.786743 614.962769,779.859680 615.458984,780.118469 
	C615.496582,780.442932 615.379639,780.581604 615.069824,780.911987 
z"/>
<path fill="#E8F9F3" opacity="1.000000" stroke="none" 
	d="
M190.731415,711.679199 
	C189.302536,716.360596 188.144699,720.717957 186.603409,724.935242 
	C185.490570,727.980286 186.088364,729.344238 189.357681,730.269470 
	C198.969833,732.989868 208.486038,736.049927 218.033218,738.998413 
	C219.589172,739.478882 221.111557,740.068176 223.006882,740.732483 
	C221.622238,745.355286 220.552048,749.707581 218.914688,753.834900 
	C218.516418,754.838806 216.012497,755.918335 214.883591,755.585083 
	C197.794388,750.539917 180.783356,745.230713 163.724960,740.079590 
	C161.094864,739.285339 160.867432,737.867126 161.576492,735.565369 
	C171.235962,704.207153 180.870346,672.841064 190.442657,641.456177 
	C191.173523,639.059814 192.246506,638.140564 194.756638,638.922607 
	C212.403137,644.419739 230.066910,649.861389 247.719513,655.338928 
	C248.010391,655.429260 248.230560,655.747375 248.887146,656.296814 
	C247.676941,660.345947 246.358719,664.586975 245.149033,668.858765 
	C244.222916,672.129272 242.071701,671.118347 239.983093,670.477539 
	C230.270401,667.497803 220.514404,664.649231 210.869476,661.464294 
	C207.582565,660.378906 206.042038,660.836975 205.153442,664.363342 
	C203.812317,669.685547 202.234573,674.974670 200.328812,680.119141 
	C198.955750,683.825562 200.219833,685.064880 203.687286,686.026978 
	C212.029343,688.341614 220.229584,691.165283 228.563400,693.512573 
	C231.716217,694.400574 232.396057,695.633118 231.442154,698.820923 
	C227.824829,710.909485 227.938309,710.941956 215.859726,707.228455 
	C210.128265,705.466248 204.329971,703.892700 198.686188,701.884583 
	C195.178864,700.636719 193.373947,701.298035 192.703918,705.080505 
	C192.329208,707.195862 191.475906,709.226379 190.731415,711.679199 
z"/>
<path fill="#E9FAF3" opacity="1.000000" stroke="none" 
	d="
M817.963013,716.861877 
	C821.639709,715.610046 825.016479,714.638977 828.244629,713.307678 
	C831.310425,712.043274 833.262817,712.249939 834.142456,715.925964 
	C834.441711,717.176208 835.689392,718.199524 836.503723,719.326477 
	C837.511047,718.357727 838.615662,717.470642 839.509094,716.406372 
	C843.688416,711.427368 847.267334,705.794434 854.411438,704.430359 
	C860.465149,703.274536 866.611267,700.438965 872.459167,701.005005 
	C877.826599,701.524597 883.421631,704.854919 887.876404,708.294006 
	C893.087708,712.317322 896.453552,718.093323 898.533875,724.691040 
	C903.190796,739.460632 908.264038,754.104553 913.473267,768.690491 
	C914.836914,772.508850 914.074219,774.096924 910.255127,775.055420 
	C906.550537,775.985229 902.898071,777.259521 899.379089,778.751404 
	C896.223633,780.089172 894.991150,779.044189 893.992310,776.031067 
	C889.011292,761.004578 883.854797,746.036316 878.761841,731.046875 
	C876.483826,724.342224 871.004272,721.487915 863.930481,720.959412 
	C853.983337,720.216187 847.648682,724.471313 844.740234,733.302307 
	C843.423584,737.300232 843.454102,742.395508 844.670105,746.454773 
	C848.778687,760.169556 853.533325,773.700378 858.393799,787.174255 
	C859.856934,791.230225 858.934448,792.871460 854.953918,793.864014 
	C851.248291,794.787964 847.608765,796.090637 844.073425,797.549438 
	C841.142151,798.759155 839.921021,797.827209 838.972046,795.009705 
	C830.993713,771.320557 822.808777,747.700012 815.058960,723.937195 
	C814.457214,722.092102 816.685303,719.324219 817.963013,716.861877 
z"/>
<path fill="#E9FAF3" opacity="1.000000" stroke="none" 
	d="
M315.210327,728.871338 
	C309.542633,727.101624 303.057434,726.751282 301.896362,719.736145 
	C301.321014,716.259827 300.468719,713.665955 297.562531,711.430359 
	C290.513519,706.007874 279.527985,704.958130 272.396179,712.190308 
	C266.020050,718.656189 263.318115,726.310120 262.244965,734.143250 
	C260.310791,748.261597 268.501770,759.317444 285.514832,757.365112 
	C287.818085,757.100830 290.689392,755.872070 291.985962,754.119507 
	C293.992096,751.407837 295.784576,751.712341 298.334290,752.582764 
	C302.589020,754.035400 306.934387,755.220215 311.222229,756.578918 
	C315.977814,758.085876 316.168518,758.556885 312.440216,761.882568 
	C308.442566,765.448486 304.483368,769.232361 299.931702,771.960632 
	C293.355377,775.902466 286.202148,777.928467 278.321106,775.256409 
	C275.866089,774.424011 272.659882,775.640503 270.318573,774.666504 
	C255.273087,768.407715 244.496933,758.960144 242.153259,741.243225 
	C240.676559,730.080261 243.085556,719.775513 247.780075,710.844116 
	C252.671585,701.537903 259.991150,693.144714 272.092407,690.655212 
	C278.308136,689.376465 283.908783,689.380310 290.126587,689.810486 
	C300.766876,690.546814 308.581665,696.108276 315.274780,702.853027 
	C320.706238,708.326294 324.570862,715.678650 323.509003,724.279236 
	C323.243927,726.426270 323.035217,728.580139 322.800598,730.730896 
	C320.398529,730.149780 317.996429,729.568604 315.210327,728.871338 
z"/>
<path fill="#E9FAF4" opacity="1.000000" stroke="none" 
	d="
M491.610352,818.279053 
	C490.982452,815.340698 490.885986,812.589600 489.763397,810.353821 
	C488.861298,808.557190 486.857971,806.342773 485.100159,806.104004 
	C473.720398,804.558533 462.263733,803.590454 450.854218,802.247009 
	C446.103546,801.687561 445.924683,805.990479 444.387054,808.345520 
	C442.042847,811.935974 440.817627,816.241455 438.885132,820.127808 
	C438.429993,821.043152 437.001678,822.129639 436.101624,822.062256 
	C430.338043,821.630432 424.596893,820.898560 418.060699,820.178650 
	C418.663208,817.793640 418.853363,815.862122 419.623383,814.199158 
	C422.774048,807.394775 426.061371,800.652466 429.375885,793.925476 
	C432.431213,787.724426 435.658600,781.607544 438.672913,775.387085 
	C440.973145,770.640198 443.010468,765.766541 445.253906,760.991150 
	C447.432373,756.353882 449.751312,751.782898 451.960052,747.159546 
	C455.070221,740.649353 458.156860,734.127625 461.209686,727.590332 
	C462.365997,725.114136 463.237549,722.487305 464.593140,720.133118 
	C464.979187,719.462646 466.638641,719.188171 467.665436,719.279480 
	C473.800842,719.824951 479.964691,720.285889 486.020294,721.341431 
	C487.693146,721.632996 489.848663,723.596069 490.367584,725.239197 
	C491.956024,730.268921 492.822906,735.523804 494.033936,740.676270 
	C495.245728,745.831970 496.564728,750.962402 497.779999,756.117371 
	C498.957642,761.112793 500.060303,766.125854 501.200897,771.130005 
	C503.439697,780.952332 505.568207,790.801758 507.962677,800.586060 
	C509.565155,807.133850 511.578339,813.580261 513.343994,820.089417 
	C514.020386,822.582886 514.767578,825.106140 514.955566,827.654663 
	C515.015442,828.466858 513.333557,830.198547 512.520752,830.155273 
	C507.372772,829.880920 502.150665,829.632690 497.163269,828.472229 
	C495.471741,828.078674 494.211853,825.167053 493.091064,823.213135 
	C492.325287,821.878052 492.142212,820.208801 491.610352,818.279053 
M460.607269,774.803772 
	C458.934631,778.220276 457.261993,781.636719 455.558777,785.115723 
	C456.008026,785.480652 456.352142,786.002686 456.750580,786.048035 
	C464.835266,786.969604 472.918182,787.923035 481.019318,788.677979 
	C485.119415,789.060059 484.590363,785.942505 484.150543,783.567688 
	C483.541718,780.280457 482.304596,777.113770 481.610504,773.837341 
	C479.635712,764.515625 477.799805,755.164368 475.676514,744.674988 
	C473.742737,746.739441 472.287506,747.700378 471.673279,749.045410 
	C467.892792,757.324219 464.302124,765.689819 460.607269,774.803772 
z"/>
<path fill="#E7F9F2" opacity="1.000000" stroke="none" 
	d="
M691.402588,780.600586 
	C689.610779,775.341248 688.025330,770.426758 686.246765,765.583191 
	C685.287292,762.970520 685.891479,761.571350 688.635925,760.779724 
	C692.310669,759.719788 695.960022,758.511230 699.504089,757.079041 
	C702.107422,756.026978 703.111755,757.087952 703.879150,759.352844 
	C712.212341,783.946533 720.566956,808.533020 728.965942,833.104370 
	C729.800903,835.547180 729.084290,836.567749 726.673645,837.489868 
	C712.578186,842.881836 712.607056,842.946838 707.775879,828.734497 
	C702.363892,812.813354 696.944580,796.894775 691.402588,780.600586 
z"/>
<path fill="#E6F8F1" opacity="1.000000" stroke="none" 
	d="
M694.841797,728.083496 
	C696.696228,731.216248 701.103577,732.133667 699.798645,737.216675 
	C697.285034,747.007568 696.024597,748.910889 686.092957,750.528564 
	C684.370789,750.809082 682.255981,749.834167 680.569885,748.961182 
	C675.755737,746.468933 673.052429,737.968323 675.310547,733.044678 
	C678.359253,726.397278 687.019958,724.077148 694.841797,728.083496 
z"/>
<path fill="#EAFAF4" opacity="1.000000" stroke="none" 
	d="
M806.156372,750.004150 
	C808.786194,755.620911 812.071167,760.673462 813.562744,766.209229 
	C815.971619,775.149780 816.705566,784.448181 812.295349,793.164917 
	C809.790039,798.116577 807.197815,803.167664 803.743958,807.446960 
	C801.343384,810.421021 797.460144,812.233765 794.145752,814.423828 
	C791.490601,816.178162 788.881409,818.519653 785.927185,819.209045 
	C776.086060,821.505554 766.000854,821.870361 756.353088,818.567017 
	C748.353882,815.828064 743.240112,809.058167 738.457825,802.530823 
	C735.548828,798.560364 733.849731,793.688232 731.711609,789.171692 
	C727.923889,781.170715 728.747009,772.490784 731.231750,764.873840 
	C733.818420,756.944153 736.451904,748.134033 745.262695,743.658569 
	C749.617554,741.446594 753.107727,737.415710 757.549927,735.526855 
	C761.580627,733.813049 766.351074,733.499695 770.832581,733.258057 
	C779.389954,732.796448 787.330688,735.247437 794.336304,740.123657 
	C798.446777,742.984741 802.130737,746.458618 806.156372,750.004150 
M751.683044,783.934143 
	C753.562683,787.272217 755.455139,790.603149 757.318848,793.950073 
	C759.893311,798.573242 771.547791,804.001404 776.525085,802.600037 
	C792.291443,798.161133 796.595337,785.920959 794.113708,772.956482 
	C792.176453,762.836670 782.910034,752.595032 770.685303,752.231567 
	C763.315430,752.012390 758.294922,755.332642 754.831909,759.702942 
	C749.591492,766.316223 747.872742,774.687256 751.683044,783.934143 
z"/>
<path fill="#EAFAF4" opacity="1.000000" stroke="none" 
	d="
M342.339050,792.697937 
	C334.922546,785.915039 330.493378,777.744263 328.691589,768.349976 
	C327.986420,764.673279 328.780304,760.708008 328.900269,756.874451 
	C328.980743,754.302368 328.394989,751.464478 329.278412,749.203064 
	C334.333710,736.262634 340.916351,724.248718 354.747894,718.846008 
	C362.235809,715.921143 370.013672,713.932678 378.352112,716.991333 
	C381.836395,718.269409 385.643066,719.102844 389.213501,720.075989 
	C398.968536,722.734802 404.160980,730.235840 408.827820,737.438477 
	C412.181000,742.613586 412.099762,750.014954 413.547150,756.423950 
	C415.475647,764.963379 411.109406,772.358948 408.405243,779.746155 
	C406.583679,784.722229 401.763641,788.637512 398.148590,792.912048 
	C391.571259,800.689148 381.870789,802.569519 372.962341,802.815979 
	C366.360626,802.998657 358.136444,804.623230 352.274323,798.341492 
	C351.253937,797.247925 349.210297,797.178101 347.786346,796.374817 
	C345.990051,795.361389 344.344696,794.080322 342.339050,792.697937 
M393.201233,759.758362 
	C394.910889,750.119080 388.512085,738.891907 379.526855,735.230408 
	C372.562469,732.392456 365.556641,734.334106 359.835754,738.066772 
	C354.097473,741.810791 351.238251,748.464478 349.113525,754.963135 
	C348.290192,757.481323 348.533752,760.384216 348.492767,763.114868 
	C348.405182,768.954102 350.415527,774.459229 354.315948,778.366943 
	C359.240967,783.300964 366.115234,785.663879 372.988159,784.059814 
	C377.420776,783.025269 382.453369,780.509216 385.142395,777.046204 
	C388.787933,772.351440 390.447266,766.114441 393.201233,759.758362 
z"/>
<path fill="#297E54" opacity="1.000000" stroke="none" 
	d="
M460.627777,774.415161 
	C464.302124,765.689819 467.892792,757.324219 471.673279,749.045410 
	C472.287506,747.700378 473.742737,746.739441 475.676514,744.674988 
	C477.799805,755.164368 479.635712,764.515625 481.610504,773.837341 
	C482.304596,777.113770 483.541718,780.280457 484.150543,783.567688 
	C484.590363,785.942505 485.119415,789.060059 481.019318,788.677979 
	C472.918182,787.923035 464.835266,786.969604 456.750580,786.048035 
	C456.352142,786.002686 456.008026,785.480652 455.558777,785.115723 
	C457.261993,781.636719 458.934631,778.220276 460.627777,774.415161 
M474.227264,762.195190 
	C474.073730,761.119324 473.920227,760.043518 473.584747,757.692322 
	C469.755524,766.259399 466.428711,773.702515 462.775452,781.875977 
	C468.187988,782.517639 473.108856,783.101074 478.604553,783.752625 
	C477.391205,776.918579 476.269653,770.556335 475.116608,764.199768 
	C475.031250,763.729431 474.718994,763.300171 474.227264,762.195190 
z"/>
<path fill="#267C52" opacity="1.000000" stroke="none" 
	d="
M751.551819,783.566956 
	C747.872742,774.687256 749.591492,766.316223 754.831909,759.702942 
	C758.294922,755.332642 763.315430,752.012390 770.685303,752.231567 
	C782.910034,752.595032 792.176453,762.836670 794.113708,772.956482 
	C796.595337,785.920959 792.291443,798.161133 776.525085,802.600037 
	C771.547791,804.001404 759.893311,798.573242 757.318848,793.950073 
	C755.455139,790.603149 753.562683,787.272217 751.551819,783.566956 
M755.674316,768.682800 
	C752.861511,780.098145 757.249390,788.651672 765.195007,794.341553 
	C771.366272,798.760803 777.270813,800.064819 782.536804,793.088318 
	C783.429260,791.905884 784.634460,790.960388 785.688904,789.899170 
	C789.830994,785.730774 791.924255,776.687317 788.741638,771.883606 
	C785.531372,767.038147 781.586121,762.296448 776.931091,758.940491 
	C774.296448,757.041016 768.856445,756.586121 765.988953,758.048035 
	C762.003662,760.079956 759.246582,764.520752 755.674316,768.682800 
z"/>
<path fill="#277C52" opacity="1.000000" stroke="none" 
	d="
M393.079895,760.148682 
	C390.447266,766.114441 388.787933,772.351440 385.142395,777.046204 
	C382.453369,780.509216 377.420776,783.025269 372.988159,784.059814 
	C366.115234,785.663879 359.240967,783.300964 354.315948,778.366943 
	C350.415527,774.459229 348.405182,768.954102 348.492767,763.114868 
	C348.533752,760.384216 348.290192,757.481323 349.113525,754.963135 
	C351.238251,748.464478 354.097473,741.810791 359.835754,738.066772 
	C365.556641,734.334106 372.562469,732.392456 379.526855,735.230408 
	C388.512085,738.891907 394.910889,750.119080 393.079895,760.148682 
M355.015411,770.238525 
	C357.825470,775.479004 362.049927,779.244507 368.083588,779.034790 
	C381.081451,778.582886 390.836792,765.198425 387.990448,752.410645 
	C385.812469,742.625610 372.385376,735.479675 365.022949,740.715515 
	C356.979492,746.435669 351.113770,758.181274 355.015411,770.238525 
z"/>
<path fill="#000000" opacity="1.000000" stroke="none" 
	d="
M474.369751,762.523499 
	C474.718994,763.300171 475.031250,763.729431 475.116608,764.199768 
	C476.269653,770.556335 477.391205,776.918579 478.604553,783.752625 
	C473.108856,783.101074 468.187988,782.517639 462.775452,781.875977 
	C466.428711,773.702515 469.755524,766.259399 473.584747,757.692322 
	C473.920227,760.043518 474.073730,761.119324 474.369751,762.523499 
z"/>
<path fill="#000000" opacity="1.000000" stroke="none" 
	d="
M755.819031,768.306580 
	C759.246582,764.520752 762.003662,760.079956 765.988953,758.048035 
	C768.856445,756.586121 774.296448,757.041016 776.931091,758.940491 
	C781.586121,762.296448 785.531372,767.038147 788.741638,771.883606 
	C791.924255,776.687317 789.830994,785.730774 785.688904,789.899170 
	C784.634460,790.960388 783.429260,791.905884 782.536804,793.088318 
	C777.270813,800.064819 771.366272,798.760803 765.195007,794.341553 
	C757.249390,788.651672 752.861511,780.098145 755.819031,768.306580 
z"/>
<path opacity="1.000000" stroke="none" 
	d="
M354.895416,769.876770 
	C351.113770,758.181274 356.979492,746.435669 365.022949,740.715515 
	C372.385376,735.479675 385.812469,742.625610 387.990448,752.410645 
	C390.836792,765.198425 381.081451,778.582886 368.083588,779.034790 
	C362.049927,779.244507 357.825470,775.479004 354.895416,769.876770 
z"/>
</svg>